HIERARCHY
ROOT pelvis
{
  OFFSET 0 100 0
  CHANNELS 6 Xposition Yposition Zposition Zrotation Xrotation Yrotation
  JOINT pelvis_right_femur
  {
    OFFSET -10.78128 -3.44521 -0.5502486
    CHANNELS 3 Zrotation Xrotation Yrotation
    JOINT right_femur_tibia
    {
      OFFSET -0.8047443 -44.0398 -0.1307829
      CHANNELS 3 Zrotation Xrotation Yrotation
      JOINT right_tibia_foot
      {
        OFFSET 3.006224 -47.83518 -5
        CHANNELS 3 Zrotation Xrotation Yrotation
        End Site
        {
          OFFSET 0 -5 15
        }
      }
    }
  }
  JOINT pelvis_left_femur
  {
    OFFSET 10.78128 -3.44521 -0.5502486
    CHANNELS 3 Zrotation Xrotation Yrotation
    JOINT left_femur_tibia
    {
      OFFSET 0.8047443 -44.0398 -0.1307829
      CHANNELS 3 Zrotation Xrotation Yrotation
      JOINT left_tibia_foot
      {
        OFFSET -4.370144 -48.10324 -4.275266
        CHANNELS 3 Zrotation Xrotation Yrotation
        End Site
        {
          OFFSET 0 -5 15
        }
      }
    }
  }
  JOINT pelvis_spine1
  {
    OFFSET 0 6.468898 -3.129235
    CHANNELS 3 Zrotation Xrotation Yrotation
    JOINT spine1
    {
      OFFSET 0 23.15396 4.99043
      CHANNELS 3 Zrotation Xrotation Yrotation
      JOINT spine2
      {
        OFFSET 0 20.79997 -5.064912
        CHANNELS 3 Zrotation Xrotation Yrotation
        JOINT neck
        {
          OFFSET 0 14.38658 9.616178
          CHANNELS 3 Zrotation Xrotation Yrotation
          End Site
          {
            OFFSET 0 20 0
          }
        }
      }
      JOINT right_manubrium
      {
        OFFSET -5.722621 16.35077 3.967754
        CHANNELS 3 Zrotation Xrotation Yrotation
        JOINT right_clavicle
        {
          OFFSET -13.16364 1.694482 -4.693211
          CHANNELS 3 Zrotation Xrotation Yrotation
          JOINT right_humerus
          {
            OFFSET -28.5034 -0.3100689 -2.792744
            CHANNELS 3 Zrotation Xrotation Yrotation
            JOINT right_radius
            {
              OFFSET -25.15693 0.02248979 -1.271978
              CHANNELS 3 Zrotation Xrotation Yrotation
              End Site
              {
                OFFSET -15 0 0
              }
            }
          }
        }
      }
      JOINT left_manubrium
      {
        OFFSET 5.722621 16.35077 3.967754
        CHANNELS 3 Zrotation Xrotation Yrotation
        JOINT left_clavicle
        {
          OFFSET 13.16364 1.694482 -4.693211
          CHANNELS 3 Zrotation Xrotation Yrotation
          JOINT left_humerus
          {
            OFFSET 29.39168 -1.063119 -2.237045
            CHANNELS 3 Zrotation Xrotation Yrotation
            JOINT left_radius
            {
              OFFSET 24.59957 -0.9528479 0.9047498
              CHANNELS 3 Zrotation Xrotation Yrotation
              End Site
              {
                OFFSET 15 -0 -0
              }
            }
          }
        }
      }
    }
  }
}
MOTION
Frames: 7
Frame Time: 0.0416666666667
999.3948 101.8313 2907.611 4.985476 -6.33709 32.97771 4.840074 4.313639 4.591796 -0 14.96639 -0 -2.932973 -12.12739 -5.32859 -1.251584 -12.72694 -5.664198 -0 52.53569 -0 -8.687096 -7.078278 16.61851 -0.8207606 2.090435 6.707631 0.3928961 9.580861 -4.092618 2.623648 23.71987 4.459025 2.394679 -16.16606 6.392082 2.977702 -16.82037 11.62174 83.37003 26.48243 -11.78948 -0 0 15.02657 -19.95033 12.22677 9.999788 3.994923 -17.83993 -3.385258 -90.55835 25.61758 17.3676 0 0 -15.31945 -1.285318 8.950612 15.53813
1002.622 101.6185 2912.339 5.098007 -6.365628 32.31092 4.387639 8.653163 4.491817 -0 13.99531 -0 -2.170307 -14.20789 -4.696467 -0.2638957 -17.81472 -4.562483 -0 45.06728 -0 -8.130171 -7.329423 17.914 -0.9179917 2.162893 7.255322 0.01291702 9.384405 -3.500606 2.534937 23.66897 4.381777 2.210509 -15.8627 6.287886 2.19183 -18.16544 11.53249 82.15701 25.3503 -9.213636 -0 0 17.65522 -20.90619 11.38471 10.89524 4.213 -17.12641 -3.153804 -91.5054 25.14149 19.20459 0 0 -13.97219 -1.578998 8.007698 15.77322
1006.045 100.9674 2917.138 4.923265 -6.23906 31.65057 3.967058 12.24013 4.436566 -0 13.80964 -0 -1.260647 -15.73639 -4.079695 0.6350072 -21.61995 -3.679542 -0 36.82805 -0 -7.496515 -7.506996 19.02853 -0.9274527 1.985692 7.652842 -0.2941263 9.220798 -3.109949 2.450701 23.4358 4.318023 2.004109 -15.82177 6.246349 1.443256 -19.48747 11.33988 81.24221 24.22965 -7.057216 -0 0 20.18718 -21.86198 10.59615 11.83983 4.369724 -16.40907 -2.929435 -92.34177 24.63334 21.04681 0 0 -12.52797 -1.834068 7.114125 16.03387
1009.713 100.0678 2922.07 4.567829 -5.93692 31.00483 3.495223 14.90605 4.429071 -0 14.87234 -0 -0.3549552 -16.28498 -3.490642 1.143589 -24.00898 -3.243915 -0 29.47823 -0 -6.904081 -7.612081 19.72504 -0.9538181 1.612658 7.939274 -0.526697 9.102328 -2.892838 2.390878 23.08357 4.317843 1.857534 -16.03922 6.286726 0.9021413 -20.56521 11.10145 80.60259 23.42805 -5.476735 -0 0 22.28856 -22.76723 10.0446 12.72822 4.413432 -15.7504 -2.719177 -93.04856 24.20751 22.80336 0 0 -11.10324 -2.048291 6.423757 16.35174
1013.644 99.15402 2927.175 4.234797 -5.538781 30.43575 2.899749 16.5874 4.494802 -0 17.57674 -0 0.4192617 -15.54495 -3.034432 1.058003 -24.96721 -3.340961 -0 24.32733 -0 -6.399221 -7.697548 19.93941 -1.100283 1.1339 8.138875 -0.707258 9.055732 -2.804103 2.366602 22.70394 4.397243 1.816785 -16.41419 6.398588 0.6485485 -21.2328 10.87913 80.27043 23.05447 -4.57894 -0 0 23.658 -23.54337 9.784025 13.42553 4.321438 -15.21543 -2.565258 -93.5552 23.91711 24.29497 0 0 -9.851296 -2.195746 5.95501 16.69074
1017.817 98.45448 2932.459 4.123237 -5.197312 30.03623 2.179734 17.29024 4.646881 -0 22.07725 -0 1.019323 -13.46961 -2.85951 0.3731446 -24.57927 -3.868024 -0 21.89528 -0 -5.953786 -7.847472 19.76312 -1.409599 0.6523056 8.248399 -0.8620228 9.125641 -2.807656 2.3753 22.37854 4.529756 1.865296 -16.80974 6.550695 0.664981 -21.45374 10.7225 80.32632 22.99893 -4.394961 -0 0 24.16291 -24.12551 9.773668 13.83995 4.101824 -14.8487 -2.52799 -93.78657 23.74524 25.35014 0 0 -8.87903 -2.261833 5.631565 16.99192
1022.177 98.14354 2937.882 4.323719 -5.054283 29.90058 1.419177 17.00765 4.852027 -0 28.15845 -0 1.491275 -10.37951 -3.078534 -0.7305613 -22.98346 -4.613206 -0 21.74163 -0 -5.514647 -8.156051 19.35808 -1.844354 0.2614442 8.226474 -0.997861 9.333596 -2.894061 2.398162 22.15816 4.672082 1.934487 -17.11144 6.714732 0.8737727 -21.30242 10.6496 80.81682 23.06248 -4.851269 -0 0 23.86773 -24.48004 9.933799 13.97126 3.793389 -14.6591 -2.639935 -93.68251 23.63994 25.83404 0 0 -8.22993 -2.251179 5.365051 17.19655
